<svg xmlns="http://www.w3.org/2000/svg" width="174" height="141.5">
  <g fill="#FFF" id="Layer_2">
    <path d="M46.193 50.106c0 .018-.006.082-.014.19a.738.738 0 0 1-.146.353 1.178 1.178 0 0 1-.438.341c-.203.1-.496.149-.881.149-.521 0-.928-.029-1.217-.086-.291-.059-.506-.137-.646-.24a.621.621 0 0 1-.254-.344 1.675 1.675 0 0 1-.047-.392c0-1.354.338-2.517 1.016-3.485.678-.968 1.629-1.761 2.854-2.378 1.225-.619 2.693-1.074 4.406-1.365 1.711-.291 3.602-.437 5.67-.437 1.375 0 2.82.066 4.338.2l4.699.412c.463.127.783.309.959.543.176.237.266.486.266.749 0 .172-.025.354-.076.544-.049.19-.123.366-.223.53-.1.163-.234.296-.402.401a1.031 1.031 0 0 1-.657.151l-.129-.009-1.945-.15c-.697-.055-1.422-.11-2.178-.168a48.62 48.62 0 0 0-2.346-.123 94.649 94.649 0 0 0-2.461-.033c-.246 0-.541.012-.885.033-.342.022-.672.048-.992.079-.367.029-.746.065-1.137.109 0 .082-.01.175-.029.278a14.97 14.97 0 0 0-.074.494 17.13 17.13 0 0 1-.152.898c-.07.374-.131.823-.186 1.352a54.431 54.431 0 0 1-.244 1.989 51.242 51.242 0 0 0-.295 3.004h7.514c.217 0 .385.041.502.122s.205.184.26.307c.053.125.086.256.094.396.01.14.014.275.014.403 0 .41-.094.717-.283.921-.191.205-.389.308-.586.308-.066 0-.271.005-.627.019l-1.289.045c-.508.016-1.066.037-1.674.057-.605.022-1.193.041-1.758.06l-1.531.048c-.453.013-.777.02-.971.02l-.594 3.162a18.87 18.87 0 0 1-.754 2.852 14.108 14.108 0 0 1-1.107 2.413 7.508 7.508 0 0 1-1.523 1.862 6.466 6.466 0 0 1-2.037 1.203c-.771.285-1.656.428-2.652.428a9.01 9.01 0 0 1-1.656-.176 7.766 7.766 0 0 1-.945-.252 3.752 3.752 0 0 1-.834-.387 2.216 2.216 0 0 1-.598-.538 1.126 1.126 0 0 1-.232-.699 2.665 2.665 0 0 1 .361-1.183c.121-.208.275-.389.461-.542.186-.154.41-.232.674-.232.299 0 .611.05.943.15.332.1.674.21 1.027.333.352.123.713.233 1.082.333.365.1.738.149 1.113.149.303 0 .596-.119.879-.359.285-.24.555-.571.805-.992.254-.42.494-.915.723-1.481s.443-1.178.645-1.834c.203-.655.385-1.342.547-2.058.164-.717.328-1.432.49-2.148l-1.689-.002c-.156 0-.35-.016-.578-.051s-.449-.092-.66-.174a1.634 1.634 0 0 1-.537-.328.679.679 0 0 1-.219-.514.76.76 0 0 1 .121-.41c.082-.128.219-.221.412-.281a310.94 310.94 0 0 1 2.36-.466l.787-.148c.227-.042.436-.076.627-.103a96.536 96.536 0 0 0 .851-4.636c.09-.579.176-1.124.26-1.635.08-.512.176-1.063.283-1.65-.795.228-1.486.499-2.072.815-.586.317-1.072.658-1.455 1.02a3.79 3.79 0 0 0-.852 1.127 2.601 2.601 0 0 0-.276 1.137z"/>
    <path d="M66.471 56.101a7.27 7.27 0 0 1 .592 1.664c.131.584.197 1.243.197 1.978 0 .535-.059 1.074-.176 1.618a8.537 8.537 0 0 1-.51 1.577 7.666 7.666 0 0 1-.816 1.426 5.79 5.79 0 0 1-1.1 1.156 5.217 5.217 0 0 1-1.354.774 4.282 4.282 0 0 1-1.563.286c-.797 0-1.479-.174-2.045-.522a4.37 4.37 0 0 1-1.395-1.368 5.992 5.992 0 0 1-.795-1.902 9.359 9.359 0 0 1-.25-2.147c0-1.196.148-2.226.447-3.091a6.759 6.759 0 0 1 1.285-2.257 5.943 5.943 0 0 1 2.045-1.509c.809-.367 1.713-.551 2.719-.551.861 0 1.666.134 2.42.402.75.266 1.457.624 2.113 1.072a9.092 9.092 0 0 1 1.834 1.693c.566.68 1.096 1.327 1.584 1.944l-.258 1.916a8.083 8.083 0 0 0-.992-1.061c-.416-.38-.861-.801-1.324-1.263a11.06 11.06 0 0 0-1.381-1.175 49.514 49.514 0 0 0-1.17-.81l-.107.15zm-4.2 7.869c.309 0 .607-.157.896-.469.291-.313.543-.707.762-1.183.219-.476.393-1.05.525-1.727a9.716 9.716 0 0 0 .195-1.8c0-.417-.033-.804-.096-1.163-.063-.357-.158-.668-.285-.931s-.289-.47-.49-.625a1.128 1.128 0 0 0-.719-.23c-.373 0-.727.158-1.061.475a4.451 4.451 0 0 0-.885 1.217 7.352 7.352 0 0 0-.596 1.637 8.56 8.56 0 0 0-.219 2.025c0 .381.037.739.109 1.075.072.334.184.627.34.877.152.248.357.447.611.598.257.15.56.224.913.224z"/>
    <path d="M78.188 56.101c.266.524.459 1.08.592 1.664.131.584.197 1.243.197 1.978 0 .535-.059 1.074-.176 1.618a8.537 8.537 0 0 1-.51 1.577 7.666 7.666 0 0 1-.816 1.426 5.79 5.79 0 0 1-1.1 1.156c-.414.326-.863.584-1.354.774s-1.01.286-1.564.286c-.795 0-1.48-.174-2.043-.522a4.37 4.37 0 0 1-1.395-1.368 6.038 6.038 0 0 1-.795-1.902 9.251 9.251 0 0 1-.252-2.147c0-1.196.15-2.226.449-3.091a6.725 6.725 0 0 1 1.285-2.257 5.924 5.924 0 0 1 2.045-1.509c.807-.367 1.713-.551 2.717-.551.861 0 1.666.134 2.42.402a9.148 9.148 0 0 1 2.115 1.072 9.146 9.146 0 0 1 1.834 1.693c.566.68 1.094 1.327 1.582 1.944l-.256 1.916a8.252 8.252 0 0 0-.994-1.061c-.416-.38-.857-.801-1.324-1.263a11.05 11.05 0 0 0-1.379-1.175 59.51 59.51 0 0 0-1.17-.81l-.108.15zm-4.2 7.869c.309 0 .607-.157.896-.469.289-.313.545-.707.762-1.183.217-.476.391-1.05.523-1.727a9.564 9.564 0 0 0 .197-1.8c0-.417-.033-.804-.096-1.163a3.686 3.686 0 0 0-.285-.931 1.726 1.726 0 0 0-.49-.625 1.128 1.128 0 0 0-.719-.23c-.373 0-.727.158-1.061.475a4.406 4.406 0 0 0-.883 1.217 7.259 7.259 0 0 0-.6 1.637 8.618 8.618 0 0 0-.217 2.025c0 .381.035.739.107 1.075.074.334.186.627.342.877.152.248.359.447.611.598.255.15.56.224.913.224z"/>
    <path d="M96.961 63.751a22.997 22.997 0 0 1-1.902 1.416c-.264.172-.539.344-.83.513-.289.168-.574.317-.857.447-.279.13-.553.236-.816.318a2.523 2.523 0 0 1-.73.123c-.129 0-.32-.03-.576-.087a3.042 3.042 0 0 1-.836-.354 3.9 3.9 0 0 1-.904-.771c-.301-.338-.564-.785-.785-1.343-.336.347-.693.676-1.07.988-.377.313-.768.584-1.172.814s-.814.417-1.229.556a3.86 3.86 0 0 1-1.246.209c-.59 0-1.098-.123-1.529-.368s-.787-.571-1.074-.978c-.285-.407-.498-.869-.639-1.385s-.211-1.05-.211-1.602c0-.587.076-1.184.225-1.786a8.43 8.43 0 0 1 .652-1.753 42.35 42.35 0 0 1 .951-1.771 6.543 6.543 0 0 1 1.387-1.684c.576-.505 1.168-.888 1.773-1.145a6.475 6.475 0 0 1 1.943-.483c.025-1.178.152-2.214.377-3.112.219-.897.461-1.862.717-2.894.256-1.035.588-1.986.994-2.856.404-.87.85-1.622 1.332-2.256.484-.633 1-1.13 1.545-1.488.549-.358 1.111-.537 1.697-.537.424 0 .785.112 1.086.334.299.221.541.516.727.884.186.367.32.795.402 1.28.082.487.121.988.121 1.505 0 .323-.002.654-.01.996a12.195 12.195 0 0 1-.6 3.633c-.377 1.121-.746 2.229-1.115 3.323a27.136 27.136 0 0 1-1.328 3.251c-.791 1.64-1.295 2.753-1.512 3.34a5.053 5.053 0 0 0-.141.467c-.047.182-.092.382-.135.597a8.785 8.785 0 0 0-.105.659 5.503 5.503 0 0 0 .004 1.408c.029.239.082.451.152.639.072.188.164.337.285.447a.627.627 0 0 0 .443.164c.172 0 .357-.033.563-.102.203-.068.422-.162.646-.282.227-.119.455-.252.686-.403.23-.151.455-.305.674-.46.498-.365 1.02-.781 1.563-1.247l.407 2.836zm-9.422-8.026a5.73 5.73 0 0 0-1.598 1.158c-.465.479-.855 1.112-1.168 1.897-.313.786-.549 1.462-.713 2.029s-.246 1.078-.246 1.535c0 .142.021.284.061.425a.93.93 0 0 0 .225.383c.109.115.264.206.463.278.199.071.457.105.775.105.162 0 .322-.036.482-.108.158-.072.309-.167.455-.283.145-.116.283-.249.416-.398.131-.149.252-.304.359-.464.254-.37.486-.788.693-1.254a4.312 4.312 0 0 1-.066-.609c-.02-.28-.035-.704-.043-1.275-.008-.571-.02-1.039-.025-1.404-.012-.366-.02-.699-.021-1a29.774 29.774 0 0 0-.021-.74c-.008-.193-.02-.284-.028-.275zm6.412-9.273c.057-.634.084-1.138.084-1.509 0-.489-.043-.83-.131-1.021s-.213-.285-.379-.285c-.295 0-.561.184-.801.55-.24.368-.434.84-.58 1.42l-.475 1.889a15.82 15.82 0 0 0-.375 1.999c-.078.652-.143 1.24-.189 1.764l-.1 1.116c-.039.448-.072.882-.098 1.302-.023.416-.041.798-.051 1.143-.012.344-.016.645-.016.902v.729a68.045 68.045 0 0 0 1.393-3.607c.178-.51.352-1.043.523-1.596l.516-1.65c.17-.546.314-1.086.432-1.621.118-.538.2-1.045.247-1.525z"/>
    <path d="M104.461 63.685c-.326.298-.732.617-1.217.958a12.893 12.893 0 0 1-3.289 1.651 5.397 5.397 0 0 1-1.666.286c-.471 0-.865-.065-1.188-.197a2.003 2.003 0 0 1-.783-.551 2.142 2.142 0 0 1-.428-.863 4.578 4.578 0 0 1-.129-1.122c0-.571.064-1.237.191-1.997.262-1.575.428-2.46.502-2.654a82.91 82.91 0 0 0 .742-2.572c.344-1.082.555-1.786.637-2.114.045-.228.168-.436.375-.618.186-.164.398-.3.635-.404a3.34 3.34 0 0 1 .732-.234c.254-.051.482-.075.689-.075.373 0 .625.07.76.21.135.14.201.328.201.563 0 .199-.049.481-.141.845l-.318 1.245a32.502 32.502 0 0 1-.527 1.797c-.234.73-.395 1.355-.48 1.872a17.37 17.37 0 0 1-.324 1.538c-.129.51-.193.974-.193 1.39 0 .408.047.731.135.971.092.24.277.36.559.36.326 0 .688-.114 1.088-.34.398-.226.801-.5 1.209-.823.408-.321.807-.654 1.197-.999.389-.344.732-.638 1.031-.883v2.76zm-6.076-14.264c0-.211.047-.449.137-.713a2.22 2.22 0 0 1 .443-.749c.201-.233.475-.429.814-.59.338-.159.762-.24 1.27-.24.318 0 .617.036.896.109.281.073.527.185.734.336.209.151.373.35.496.598.123.247.186.54.186.877 0 .312-.051.614-.15.907s-.26.553-.477.782a2.446 2.446 0 0 1-.822.555c-.33.142-.729.214-1.189.214-.797 0-1.387-.19-1.766-.571-.381-.378-.572-.884-.572-1.515z"/>
    <path d="M108.068 66.58c-.844 0-1.588-.157-2.219-.47a4.581 4.581 0 0 1-1.588-1.267 5.462 5.462 0 0 1-.951-1.84 7.513 7.513 0 0 1-.318-2.193c0-.5.094-1.097.285-1.789.189-.694.387-1.309.586-1.845a8.574 8.574 0 0 1 .766-1.537 6.231 6.231 0 0 1 1.074-1.287 4.992 4.992 0 0 1 1.379-.886 4.259 4.259 0 0 1 1.697-.329c.508 0 .979.082 1.416.245.434.162.813.392 1.137.686.32.293.572.649.754 1.066.18.416.271.882.271 1.398 0 .55-.184 1.165-.551 1.846a7.423 7.423 0 0 1-1.287 1.754 8.17 8.17 0 0 1-1.75 1.303 9.522 9.522 0 0 1-2.201.891c.137.239.271.438.402.599.133.159.268.283.402.371.139.089.279.151.432.187.146.034.311.052.484.052.543 0 1.115-.105 1.719-.318a11.448 11.448 0 0 0 1.76-.798 14.474 14.474 0 0 0 1.617-1.043c.508-.376.939-.733 1.291-1.07l1.754 1.781c-.797.848-1.645 1.6-2.543 2.253-.389.28-.807.556-1.258.826-.447.27-.918.51-1.412.721a9.573 9.573 0 0 1-1.535.503 6.893 6.893 0 0 1-1.613.19zm-1.812-6.474c.328 0 .684-.081 1.07-.245a4.838 4.838 0 0 0 1.078-.632c.33-.257.658-.602.975-1.037.318-.434.479-.792.479-1.077 0-.398-.076-.725-.225-.982-.152-.257-.334-.386-.555-.386-.389 0-.725.07-1.002.212a2.17 2.17 0 0 0-.695.552 2.847 2.847 0 0 0-.449.771c-.113.288-.246.644-.398 1.069-.146.425-.234.776-.25 1.05a8.744 8.744 0 0 0-.028.705zM114.193 49.142c0-.164.006-.374.021-.633.012-.257.027-.542.045-.855.02-.313.043-.643.068-.993.027-.348.055-.69.084-1.025.061-.79.135-1.636.215-2.542 0-.272.068-.514.207-.728.135-.214.311-.393.529-.544.219-.149.463-.264.734-.346.275-.081.545-.123.818-.123.24 0 .467.03.686.088.221.06.416.149.586.266.172.117.309.272.408.462.102.19.15.413.15.667a2.263 2.263 0 0 1-.113.692c-.133.436-.281.914-.436 1.435-.16.52-.32 1.039-.486 1.555-.168.517-.33 1.009-.488 1.475-.154.467-.295.863-.422 1.189-.152.436-.373.759-.656.973-.287.213-.574.318-.863.318-.291 0-.545-.11-.762-.333-.215-.222-.325-.555-.325-.998zM122.064 61.45c.508-.44.922-.807 1.236-1.099.32-.293.635-.634.951-1.023.318-.39.57-.708.756-.955l.658-.879c.254-.339.563-.753.924-1.243.363-.49.836-1.103 1.416-1.834.117-.166.248-.326.393-.481.146-.156.307-.295.482-.419.178-.124.373-.224.586-.302.213-.077.449-.116.711-.116.438 0 .771.048 1.01.145.234.096.406.214.514.35a.847.847 0 0 1 .191.433c.02.151.027.281.027.392 0 .22-.088.462-.258.727a7.97 7.97 0 0 1-.57.77c-.211.248-.408.475-.592.681-.186.206-.293.359-.322.46 0 .284.023.542.063.776.043.233.1.462.17.686.068.225.139.463.213.715.074.252.145.542.213.873.066.329.076.782.027 1.359a20.637 20.637 0 0 0-.074 1.745 8.27 8.27 0 0 1 1.051-.598l1.178-.556a25.83 25.83 0 0 0 1.258-.639c.43-.232.861-.515 1.297-.845l.014 3.077c-.563.42-1.211.813-1.951 1.18a19.239 19.239 0 0 1-4.795 1.632c-.828.162-1.615.243-2.357.243a7.375 7.375 0 0 1-1.496-.144 4 4 0 0 1-1.215-.448 2.578 2.578 0 0 1-.852-.799c-.217-.33-.348-.729-.395-1.197a2.667 2.667 0 0 1-.373.056 5.8 5.8 0 0 1-.767 0 .697.697 0 0 1-.326-.103.608.608 0 0 1-.217-.289c-.055-.132-.082-.322-.082-.571 0-.219.055-.422.164-.611.107-.188.234-.354.381-.501a4.14 4.14 0 0 1 .434-.384c.143-.112.252-.2.324-.264zm1.698 1.758c.109 0 .229.068.359.207.131.137.283.288.455.453.174.165.373.315.598.454.227.136.484.206.775.206.354 0 .646-.059.879-.179a1.5 1.5 0 0 0 .549-.473 1.89 1.89 0 0 0 .285-.687c.053-.261.08-.534.08-.818 0-.246-.014-.499-.045-.755a4.413 4.413 0 0 1 .012-.955c.041-.38.033-.673-.027-.879-.059-.207-.107-.381-.156-.529l-3.764 3.955zM68.348 97.156c-.643.53-1.275 1-1.9 1.414-.264.174-.541.344-.83.513-.291.169-.576.318-.854.448-.285.13-.557.235-.82.318a2.488 2.488 0 0 1-.729.123c-.131 0-.322-.029-.578-.087a2.952 2.952 0 0 1-.836-.353c-.301-.177-.602-.436-.904-.772-.299-.337-.563-.784-.785-1.342-.336.346-.693.676-1.07.989a8.29 8.29 0 0 1-1.172.813 6.855 6.855 0 0 1-1.227.556c-.414.14-.83.21-1.248.21-.588 0-1.1-.122-1.529-.368a3.293 3.293 0 0 1-1.074-.977 4.473 4.473 0 0 1-.639-1.385 6.145 6.145 0 0 1-.211-1.602c0-.589.076-1.184.225-1.786.15-.604.369-1.187.652-1.753.285-.565.604-1.156.953-1.773a6.485 6.485 0 0 1 1.385-1.682 6.617 6.617 0 0 1 1.775-1.146 6.478 6.478 0 0 1 1.941-.483c.029-1.176.152-2.214.375-3.111l.721-2.896c.256-1.034.586-1.984.992-2.855.408-.87.852-1.62 1.332-2.255.484-.634 1-1.13 1.545-1.488.549-.358 1.113-.537 1.695-.537.426 0 .789.11 1.088.333.301.223.543.518.729.885s.318.794.4 1.28c.08.485.123.986.123 1.504 0 .323-.006.655-.01.997-.027 1.3-.227 2.512-.604 3.631l-1.113 3.324a27.77 27.77 0 0 1-1.324 3.25c-.793 1.641-1.299 2.753-1.514 3.341a5.42 5.42 0 0 0-.143.466 9.438 9.438 0 0 0-.133.598c-.043.214-.08.434-.107.659a5.486 5.486 0 0 0 .004 1.409c.031.238.082.451.152.639.072.188.166.337.283.446a.64.64 0 0 0 .445.165c.17 0 .359-.034.564-.104.203-.068.418-.162.645-.28.227-.118.455-.254.688-.404.23-.151.453-.304.672-.458.5-.365 1.02-.782 1.563-1.249l.407 2.835zm-9.42-8.028a5.8 5.8 0 0 0-1.598 1.158c-.465.479-.855 1.112-1.17 1.899a22.63 22.63 0 0 0-.711 2.027c-.164.568-.244 1.078-.244 1.535 0 .141.021.285.061.426a.917.917 0 0 0 .223.383c.109.113.264.205.463.276.201.072.459.107.773.107.166 0 .328-.037.484-.109a2.09 2.09 0 0 0 .457-.283 3.35 3.35 0 0 0 .414-.397c.131-.149.252-.303.361-.464.254-.368.484-.788.693-1.254a4.538 4.538 0 0 1-.068-.609c-.02-.278-.033-.703-.041-1.274l-.027-1.405c-.01-.366-.018-.7-.021-1.002-.006-.3-.014-.547-.021-.738-.009-.193-.02-.285-.028-.276zm6.412-9.272c.059-.636.086-1.137.086-1.51 0-.489-.045-.83-.133-1.02-.086-.19-.213-.286-.379-.286-.295 0-.561.185-.801.549-.242.369-.432.842-.578 1.421l-.477 1.888a16.22 16.22 0 0 0-.373 2c-.08.652-.143 1.24-.189 1.763-.049.524-.082.896-.102 1.116a45.551 45.551 0 0 0-.149 2.445c-.01.346-.014.646-.014.903v.729a71.62 71.62 0 0 0 1.391-3.606c.178-.51.354-1.043.525-1.598s.344-1.104.514-1.65c.17-.545.314-1.085.432-1.62.118-.536.2-1.044.247-1.524z"/>
    <path d="M67.588 97.143c0-.398.021-.862.066-1.393.045-.53.105-1.089.182-1.679.08-.59.17-1.189.271-1.802.105-.61.24-1.262.402-1.957.164-.691.305-1.27.422-1.732.117-.462.236-.842.354-1.142.072-.2.146-.357.217-.476a.948.948 0 0 1 .252-.278.81.81 0 0 1 .355-.136c.139-.024.313-.035.521-.035.236 0 .418.011.551.035a.435.435 0 0 1 .293.163c.063.086.102.21.115.374.014.163.021.385.021.666 0 .334-.025.81-.068 1.427a13.349 13.349 0 0 0-.041 1.617h.148c.182-.362.408-.838.678-1.427.273-.589.559-1.079.857-1.468.299-.39.639-.718 1.021-.985a2.221 2.221 0 0 1 1.316-.401c.172 0 .34.029.504.089.164.058.307.141.428.25.123.109.219.242.293.402.072.158.107.336.107.537 0 .153-.021.368-.068.644a18.99 18.99 0 0 1-.217 1.083c-.102.442-.172.809-.217 1.093a4.497 4.497 0 0 0-.068.714c0 .326.031.597.096.815.064.217.146.393.25.523a.877.877 0 0 0 .354.278c.133.055.271.083.414.083.41 0 .83-.091 1.266-.273a8.2 8.2 0 0 0 1.195-.611c.428-.263.844-.562 1.25-.897l-.203 3.18a54.5 54.5 0 0 1-.801.516c-.299.19-.619.37-.959.537-.34.168-.693.31-1.061.422-.367.113-.74.17-1.119.17-.682 0-1.229-.14-1.646-.414a3.033 3.033 0 0 1-.992-1.087 5.525 5.525 0 0 1-.543-1.51 21.023 21.023 0 0 1-.285-1.692h-.219l-2.432 6.782a9.252 9.252 0 0 1-.361.876c-.113.231-.229.42-.348.564a1.015 1.015 0 0 1-.381.307 1.107 1.107 0 0 1-.447.087c-.371 0-.672-.079-.898-.238a1.54 1.54 0 0 1-.521-.638 3.103 3.103 0 0 1-.246-.912 9.19 9.19 0 0 1-.058-1.051z"/>
    <path d="M83.863 99.983c-.846 0-1.588-.156-2.221-.47a4.6 4.6 0 0 1-1.588-1.265 5.495 5.495 0 0 1-.951-1.841 7.452 7.452 0 0 1-.318-2.193c0-.501.096-1.097.283-1.791.191-.692.387-1.307.59-1.845a8.59 8.59 0 0 1 .764-1.536 6.16 6.16 0 0 1 1.074-1.287c.41-.372.869-.667 1.381-.886a4.235 4.235 0 0 1 1.695-.328c.508 0 .98.081 1.416.244.434.163.813.392 1.135.685.322.295.574.65.754 1.066.182.416.273.882.273 1.398 0 .55-.184 1.165-.553 1.848a7.362 7.362 0 0 1-1.287 1.753 8.03 8.03 0 0 1-1.748 1.304c-.678.38-1.41.677-2.201.889.137.241.271.439.402.599.133.16.268.283.402.372.137.088.281.15.432.186.148.035.311.053.484.053.543 0 1.115-.107 1.719-.318a11.414 11.414 0 0 0 1.76-.798 15.314 15.314 0 0 0 2.91-2.113l1.75 1.78c-.795.85-1.643 1.6-2.539 2.254-.393.28-.811.556-1.258.825-.449.271-.92.512-1.414.723a9.661 9.661 0 0 1-1.537.503 6.925 6.925 0 0 1-1.609.189zm-1.816-6.473c.33 0 .686-.082 1.072-.246a4.772 4.772 0 0 0 1.076-.63c.334-.258.658-.602.979-1.037.316-.434.477-.793.477-1.077 0-.398-.076-.727-.225-.983-.15-.257-.336-.385-.555-.385-.391 0-.725.071-1.002.212a2.195 2.195 0 0 0-.697.552 2.806 2.806 0 0 0-.447.77c-.115.287-.248.645-.396 1.07-.152.425-.234.775-.254 1.05-.018.275-.028.509-.028.704z"/>
    <path d="M103.82 96.616c-.207.293-.486.637-.836 1.03-.348.396-.74.77-1.176 1.127a7.374 7.374 0 0 1-1.398.908c-.5.246-.998.371-1.496.371-.6 0-1.104-.19-1.506-.572-.402-.381-.75-.935-1.039-1.661-.223.251-.49.505-.811.766s-.668.497-1.047.707a6.93 6.93 0 0 1-1.186.518c-.41.134-.824.201-1.234.201-.434 0-.857-.088-1.27-.266a3.327 3.327 0 0 1-1.096-.769 3.76 3.76 0 0 1-.76-1.22c-.191-.48-.285-1.022-.285-1.625 0-.678.094-1.372.287-2.086.189-.713.488-1.485.889-2.315.4-.832.832-1.549 1.291-2.155a9.463 9.463 0 0 1 1.512-1.583 7.313 7.313 0 0 1 1.729-1.078 4.578 4.578 0 0 1 1.854-.399c.209 0 .373.042.492.124.119.083.217.176.295.282l.225.308a.653.653 0 0 0 .273.221c.107.046.219.075.336.088.113.015.229.021.348.021.1 0 .201-.002.307-.007.105-.006.209-.008.309-.008.137 0 .266.015.383.042a.657.657 0 0 1 .314.179.9.9 0 0 1 .211.384c.051.166.074.391.074.674 0 .433-.045.914-.135 1.442a49.73 49.73 0 0 1-.311 1.623c-.117.555-.25 1.185-.402 1.895-.146.709-.223 1.306-.223 1.792 0 .416.039.74.115.974.076.234.242.351.496.351.189 0 .389-.046.598-.141.209-.094.418-.217.633-.37.211-.153.424-.325.639-.52.213-.193.412-.393.604-.6.445-.485.893-1.032 1.346-1.643l.651 2.99zm-11.66-1.065c0 .232.016.46.047.679.031.221.088.417.172.589.082.174.189.313.326.42a.808.808 0 0 0 .516.162c.338 0 .641-.145.912-.438.275-.292.51-.642.709-1.053.201-.412.361-.835.484-1.273.121-.438.201-.803.238-1.094l1.014-4.419a2.33 2.33 0 0 0-1.088.277 4.05 4.05 0 0 0-1 .747 6.864 6.864 0 0 0-.863 1.078 9.94 9.94 0 0 0-.773 1.496 9.846 9.846 0 0 0-.537 1.562 5.636 5.636 0 0 0-.157 1.267z"/>
    <path d="M108.389 97.517c0-.119.01-.287.027-.505.02-.219.047-.469.082-.75.037-.282.076-.581.123-.895l.135-.936c.1-.728.223-1.511.367-2.347h-.203c-.109.137-.234.342-.375.615s-.338.674-.59 1.204c-.254.528-.578 1.215-.973 2.058a96.664 96.664 0 0 1-1.529 3.099c-.182.361-.391.604-.633.733-.238.127-.504.19-.793.19-.373 0-.672-.077-.896-.231a1.501 1.501 0 0 1-.525-.618 2.897 2.897 0 0 1-.244-.886 8.267 8.267 0 0 1-.061-1.022c0-.373.021-.816.068-1.327.045-.511.104-1.048.176-1.614.072-.565.178-1.211.32-1.937.139-.725.262-1.357.367-1.896.104-.54.209-1.033.318-1.481.107-.449.209-.814.297-1.097.094-.292.18-.527.26-.701a1.31 1.31 0 0 1 .281-.404.77.77 0 0 1 .371-.192c.146-.033.332-.049.559-.049.344 0 .613.012.809.035.193.023.34.077.436.165.094.087.15.212.168.378.02.163.029.388.029.67 0 .156-.008.334-.023.537-.012.201-.033.415-.061.644-.018.229-.045.463-.08.7-.064.457-.1.696-.109.713a70.374 70.374 0 0 0-.393 2.087l.148.163c.018-.026.137-.269.359-.726.223-.458.463-.91.721-1.359.256-.447.537-.916.836-1.405.299-.49.584-.922.855-1.296.264-.375.541-.687.838-.934a1.588 1.588 0 0 1 1.053-.371c.381 0 .707.112.977.337.273.224.41.541.41.953 0 .357-.023.695-.068 1.016a8.914 8.914 0 0 1-.164.932c-.061.238-.135.531-.217.879-.064.301-.178.735-.342 1.303a3.786 3.786 0 0 0-.08.398c-.008.055-.016.092-.016.11l.152.163c.018-.026.145-.267.379-.719.238-.453.494-.904.771-1.353.273-.447.568-.918.881-1.412s.605-.928.877-1.303c.264-.365.525-.675.789-.926.262-.251.584-.378.965-.378.424 0 .785.112 1.082.337.293.224.439.541.439.953 0 .63-.031 1.23-.094 1.798a26.109 26.109 0 0 1-.287 1.878 26.086 26.086 0 0 0-.285 1.873 15.878 15.878 0 0 0-.094 1.791c0 .493.061.896.189 1.208.127.311.281.465.461.465.191 0 .389-.041.6-.123.207-.082.42-.188.639-.316.217-.128.43-.276.639-.446a9.42 9.42 0 0 0 .598-.527c.443-.422.885-.896 1.316-1.428l.232 3.223a44.09 44.09 0 0 0-1.189.957c-.393.33-.811.63-1.25.897a6.744 6.744 0 0 1-1.449.659c-.523.173-1.117.258-1.779.258-.326 0-.602-.104-.822-.312-.223-.21-.4-.5-.537-.873a5.918 5.918 0 0 1-.293-1.318 14.835 14.835 0 0 1-.086-1.652c0-.575.018-1.187.061-1.831.039-.646.096-1.296.17-1.955h-.203l-2.76 6.981c-.236.378-.498.632-.789.763a2.447 2.447 0 0 1-1.004.195c-.291 0-.521-.077-.695-.231a1.525 1.525 0 0 1-.4-.592 3.053 3.053 0 0 1-.189-.8 7.038 7.038 0 0 1-.05-.844z"/>
    <path d="M170.074 70.979l-.043.359c-.045.239-.037.594-.16 1.066-.279.985-.959 2.306-2.27 3.644-1.299 1.347-3.154 2.692-5.373 4.155-1.113.732-2.313 1.508-3.549 2.381-1.24.867-2.551 1.809-3.736 2.979-1.205 1.177-2.238 2.513-2.578 4.34-.326 1.713-.25 3.703-.076 5.714.215 2.053.436 4.188.666 6.403.156 2.246.344 4.652-.377 7.218-.313 1.287-1.061 2.557-2.098 3.616-.006.02-.277.228-.207.169l-.094.068-.189.133-.375.271c-.207.183-.592.354-.977.515-.785.379-1.469.477-2.178.627-2.82.397-5.502-.029-8.174-.389-2.664-.381-5.35-.871-7.941-.904a11.287 11.287 0 0 0-3.607.427l-.756.284c-.066.024.246-.129.059-.029l-.113.073-.229.145-.461.289c-.348.199-.369.36-.58.523l-.26.245-.301.362c-1.637 1.902-2.904 4.604-4.338 7.287-.727 1.356-1.467 2.751-2.363 4.152-.871 1.396-1.908 2.823-3.352 4.101-.688.651-1.594 1.212-2.551 1.659l-.777.271-.389.127-.195.061c.168-.015-.457.093-.441.083l-1.199.096a18.11 18.11 0 0 1-1.842-.206c-.535-.125-.967-.289-1.455-.442-.898-.35-1.77-.747-2.525-1.21-3.113-1.814-5.619-4.012-8.246-5.93-1.299-.97-2.619-1.834-3.938-2.486-.328-.138-.66-.307-.984-.427l-.961-.287-.906-.113c-.221.008.176-.031.07-.018l-.16.015-.32.027-.645.059c-1.078.188-2.553.812-3.939 1.631-1.4.805-2.791 1.823-4.209 2.839-1.414 1.026-2.867 2.103-4.428 3.113-1.561 1-3.238 2.003-5.33 2.517-.508.141-1.094.165-1.633.236-.561.025-1.158-.078-1.729-.136a2.162 2.162 0 0 1-.344-.093l-.16-.057-.32-.114-.639-.229a20.275 20.275 0 0 1-1.545-.907c-1.719-1.306-2.842-2.938-3.859-4.549-2.004-3.246-3.406-6.674-5.307-9.727-.951-1.488-2.045-2.928-3.432-3.684l-.125-.083c-.055-.037.055.019-.072-.033l-.33-.123-.658-.243c-.436-.149-.797-.156-1.197-.254-.83-.107-1.74-.158-2.641-.113-3.641.123-7.346 1.068-11.188 1.551-1.922.23-3.936.375-5.986-.135-.5-.175-1.012-.352-1.494-.589-.449-.341-.934-.531-1.344-1.015-.314-.386-.666-.63-.943-1.171-.285-.484-.602-.98-.734-1.472-.729-1.97-.82-4.006-.811-5.973.025-1.974.223-3.909.355-5.837.129-1.92.277-3.843.156-5.697-.029-.463-.1-.913-.146-1.37-.066-.448-.195-.867-.287-1.302-.131-.379-.342-.851-.451-1.119-.268-.392-.52-.853-.805-1.186-1.055-1.259-2.635-2.475-4.203-3.506-1.592-1.06-3.26-2.06-4.924-3.119-1.666-1.057-3.342-2.184-4.877-3.63-.764-.722-1.49-1.548-2.07-2.543-.33-.455-.479-1.072-.711-1.611-.178-.568-.209-1.199-.295-1.801l.084-.893c.047-.266.002-.435.123-.779.203-.597.389-1.35.699-1.796.553-1.028 1.26-1.893 2.008-2.652 1.5-1.522 3.154-2.726 4.781-3.851 1.631-1.128 3.258-2.193 4.781-3.302 1.523-1.099 2.951-2.285 3.916-3.56.248-.315.395-.641.613-.95.041-.066-.088.206-.002.007l.064-.169.129-.341c.078-.217.201-.477.238-.658l.17-1.019c.029-.428.084-.839.102-1.276.066-1.752-.121-3.639-.295-5.546-.178-1.917-.406-3.865-.467-5.913-.039-2.042-.002-4.208.801-6.496a8.567 8.567 0 0 1 2.014-3.227l.17-.183c-.139.093.379-.338.379-.323l.297-.204.594-.406a12.214 12.214 0 0 1 2.006-.836c2.412-.6 4.557-.417 6.549-.193 3.977.484 7.67 1.416 11.074 1.554.848.048 1.646.004 2.389-.088.34-.083.73-.106 1.033-.218l.447-.167.225-.076c.234-.117-.195.125-.092.061l.15-.092.598-.368.297-.184.129-.149c.184-.223.34-.27.609-.624.504-.543.977-1.219 1.443-1.908 1.857-2.878 3.318-6.295 5.439-9.626 1.08-1.656 2.287-3.377 4.215-4.808a24.622 24.622 0 0 1 1.602-.943l.922-.329.465-.151.232-.072c-.199.018.541-.112.521-.099l.676-.057.336-.029c.096-.013.225-.019.434-.001.697.054 1.549.127 2.107.298 2.299.613 4.01 1.703 5.59 2.757 1.574 1.064 3.018 2.181 4.402 3.233 2.729 2.08 5.557 4.112 7.896 4.548l.402.04.201.029.1.016c.08.007-.383.018-.109.005l1.262-.126c.221-.093.439-.163.67-.214.273-.094.623-.26.93-.381 1.283-.6 2.604-1.422 3.908-2.359 2.654-1.854 5.166-4.054 8.338-5.86 1.598-.869 3.383-1.75 5.699-1.86.588.03 1.178.081 1.76.153.023-.009.627.164.436.114l.141.05.283.099.564.198c.15.033.475.213.732.353l.797.458c.582.324.859.643 1.258.967 1.461 1.309 2.498 2.757 3.367 4.166.895 1.415 1.625 2.817 2.346 4.18 1.416 2.692 2.676 5.393 4.283 7.282.193.251.391.477.604.649.209.17.4.43.615.539l.311.199.154.104.076.054c.182.081-.17-.048-.082-.017l1.01.382c.379.173.523.105.789.188.234.049.465.119.799.129.605.068 1.229.107 1.881.082 2.58-.027 5.27-.511 7.934-.887 2.674-.353 5.361-.775 8.191-.372.715.149 1.418.265 2.117.601.346.141.695.271 1.004.521l.475.333.229.17.117.084c-.051-.06.203.177.199.185.398.511.799.808 1.184 1.572.184.336.395.681.521 1.009l.313.962c.721 2.58.533 4.988.373 7.237-.229 2.215-.453 4.35-.666 6.402-.174 2.021-.262 3.973.076 5.728.305 1.742 1.395 3.18 2.559 4.301 1.184 1.167 2.492 2.109 3.729 2.978 1.236.874 2.436 1.65 3.543 2.385 2.219 1.467 4.072 2.817 5.371 4.168 1.313 1.339 1.984 2.674 2.26 3.622.123.475.121.861.166 1.107l.039.376v.034zm-.49-.03s-.033-.468-.209-1.348c-.266-.861-.891-2.088-2.17-3.362-1.264-1.282-3.098-2.587-5.324-4.018-2.193-1.484-4.932-2.887-7.551-5.234-1.318-1.186-2.561-2.718-3.008-4.724-.486-1.938-.498-3.984-.443-6.067l.299-6.417c.041-2.167.033-4.474-.672-6.465l-.277-.729c-.105-.223-.238-.379-.34-.578-.111-.358-.699-.842-1.08-1.273-.049-.053.137.142.023.04l-.078-.044-.15-.087-.297-.182c-.176-.147-.424-.21-.662-.285-.441-.197-.992-.245-1.523-.326-2.213-.187-4.73.317-7.301.84-2.596.528-5.287 1.213-8.314 1.449-.75.073-1.535.082-2.346.042-.738-.003-1.902-.214-2.613-.41l-1.025-.337c-.002.009-.422-.179-.32-.143l-.154-.086-.311-.176-.617-.362c-.43-.238-.713-.552-1.074-.834a6.831 6.831 0 0 1-.934-.907c-2.293-2.515-3.678-5.264-5.199-7.892-.74-1.313-1.477-2.62-2.277-3.805-.787-1.211-1.664-2.293-2.58-3.058-.221-.167-.49-.439-.627-.468a1.914 1.914 0 0 1-.229-.145c-.09-.055-.086-.122-.33-.181l-.57-.181-.283-.09-.145-.045c-.283-.079.225.052.148.044a3.187 3.187 0 0 1-.639-.046c-.926.042-2.166.558-3.395 1.273-2.5 1.445-5.002 3.638-7.813 5.679-1.408 1.034-2.943 2.054-4.73 2.916-.479.203-.9.409-1.43.598a27.93 27.93 0 0 1-1.797.479l-1.297.146c.168-.009-.4.033-.428.02l-.221-.016-.439-.037-.881-.09c-2.275-.406-4.064-1.388-5.701-2.37-1.641-1.004-3.068-2.112-4.498-3.184-1.418-1.083-2.781-2.137-4.154-3.069-1.359-.934-2.768-1.737-3.967-2.038-.299-.091-.361-.041-.551-.141-.014-.029-.111-.029-.238-.013l-.338.028-.674.055c-.137.011.502-.068.191-.016l-.088.035-.178.063a4.26 4.26 0 0 1-.365.102c-.244.143-.488.298-.75.426-1.025.715-2.035 1.979-2.955 3.37-1.877 2.814-3.393 6.209-5.611 9.565-.586.842-1.195 1.687-1.971 2.507-.301.39-.924.884-1.42 1.298l-.398.315-.305.18-.605.359c-1.418.716-2.412.909-3.6 1.086a18.126 18.126 0 0 1-3.242.082c-4.141-.261-7.834-1.291-11.416-1.768-1.768-.251-3.52-.332-4.848-.011-.246.114-.348.088-.664.203l-.6.395-.301.197c-.109.072.344-.254.123-.076l-.074.083c-.42.408-.787.915-1.033 1.594-.531 1.333-.684 3.094-.686 4.894.004 1.813.164 3.716.293 5.66.121 1.95.277 3.941.141 6.071-.037.532-.117 1.084-.176 1.624-.084.565-.27 1.231-.426 1.831-.088.288-.186.466-.277.706l-.139.336-.072.168a3.095 3.095 0 0 1-.162.334c-.328.495-.637 1.036-1.002 1.476-1.471 1.772-3.176 2.991-4.844 4.11-1.68 1.112-3.363 2.114-4.99 3.139-1.623 1.02-3.184 2.081-4.479 3.288-.646.6-1.205 1.247-1.607 1.924-.271.353-.256.598-.449.891-.096.101-.086.445-.137.655l-.051.363-.025.182c-.006-.015-.027.285-.02.015-.029 1.451.867 2.918 2.127 4.196 1.262 1.284 2.797 2.42 4.385 3.509 1.59 1.096 3.234 2.164 4.846 3.325 1.623 1.185 3.172 2.373 4.557 4.162.328.422.535.829.807 1.242.291.611.447 1.049.629 1.586.264 1.037.393 2.063.441 3.078.086 2.027-.115 3.981-.281 5.917-.17 1.932-.359 3.848-.402 5.735-.029 1.876.072 3.765.674 5.416.303.832.639 1.426 1.373 2.179.191.273.645.457.947.7.375.176.781.308 1.178.451 1.688.408 3.568.291 5.412.044 3.715-.478 7.396-1.494 11.297-1.768.98-.073 1.961-.055 2.994.054.516.097 1.104.16 1.557.305l.666.225.334.112c-.016-.009.209.071.25.104l.176.1c1.945 1.027 3.227 2.643 4.344 4.206 2.176 3.181 3.748 6.564 5.74 9.465.984 1.434 2.078 2.788 3.314 3.629.287.136.523.293.801.46l1.121.341c.328-.013.633.055.967.022.346-.082.676-.082 1.029-.201 1.404-.4 2.844-1.291 4.223-2.277 1.389-.988 2.74-2.081 4.131-3.19 1.4-1.097 2.793-2.224 4.373-3.232 1.584-.981 3.244-1.979 5.57-2.401l.641-.073.32-.035.16-.02c0-.009.504-.013.391-.004.549.043 1.109.085 1.648.162l1.508.404c.479.163.918.366 1.377.552 1.75.809 3.285 1.788 4.701 2.791 2.834 1.976 5.344 4.17 7.904 5.608.631.39 1.26.651 1.861.891.283.079.611.204.857.264.191.009.365.049.553.121l1.195-.103c.117-.009-.416.059-.15.013l.088-.034.176-.061.359-.109c.469-.23.957-.479 1.418-.913.938-.795 1.814-1.898 2.598-3.122.799-1.199 1.527-2.513 2.262-3.832 1.502-2.638 2.879-5.387 5.143-7.891.453-.57 1.445-1.373 2.082-1.798l.471-.272.234-.135.117-.068c-.109.059.273-.156.297-.154l1.277-.436a14.27 14.27 0 0 1 4.822-.342c3.018.23 5.707.909 8.305 1.432 2.572.517 5.098 1.018 7.324.825.531-.08 1.102-.147 1.457-.3.201-.056.412-.077.691-.291l.654-.406c.699-.675 1.313-1.481 1.615-2.51.707-2.004.715-4.313.672-6.482-.104-2.221-.203-4.361-.301-6.418-.053-2.09-.051-4.099.447-6.079.102-.52.268-.964.461-1.375.109-.229.129-.388.313-.671l.395-.602c.244-.417.563-.75.869-1.09.293-.352.611-.663.947-.945 2.613-2.348 5.352-3.75 7.543-5.24 2.225-1.436 4.057-2.744 5.318-4.029 1.279-1.275 1.9-2.515 2.158-3.342.125-.436.125-.816.17-1.048l.045-.359-.001.03z"/>
  </g>
</svg>
